<svg xmlns="http://www.w3.org/2000/svg" version="1.1" xmlns:xlink="http://www.w3.org/1999/xlink" width="512" height="512" x="0" y="0" viewBox="0 0 502 502" style="enable-background:new 0 0 512 512" xml:space="preserve" class=""><g><circle cx="251" cy="251" r="241" style="" fill="#bd2317" data-original="#4d93e8" class="" opacity="1"></circle><path d="M251 502c-67.044 0-130.076-26.108-177.484-73.516S0 318.044 0 251 26.108 120.924 73.516 73.516 183.956 0 251 0s130.076 26.108 177.484 73.516S502 183.956 502 251s-26.108 130.076-73.516 177.484S318.044 502 251 502zm0-482C123.626 20 20 123.626 20 251s103.626 231 231 231 231-103.626 231-231S378.374 20 251 20z" fill="#ffffff" opacity="1" data-original="#000000" class=""></path><path d="M251 461c-115.794 0-210-94.206-210-210 0-5.523 4.477-10 10-10s10 4.477 10 10c0 104.766 85.234 190 190 190 5.523 0 10 4.477 10 10s-4.477 10-10 10zM451 261c-5.523 0-10-4.477-10-10 0-78.745-47.358-148.202-120.651-176.95-5.142-2.017-7.675-7.819-5.658-12.961 2.017-5.142 7.823-7.674 12.961-5.658 38.864 15.244 72.041 41.493 95.945 75.91C448.066 166.574 461 207.951 461 251c0 5.523-4.477 10-10 10zM274.012 62.309c-.38 0-.764-.021-1.15-.066A192.86 192.86 0 0 0 251 61c-5.523 0-10-4.477-10-10s4.477-10 10-10a213 213 0 0 1 24.138 1.373c5.487.628 9.426 5.586 8.797 11.073-.584 5.1-4.909 8.863-9.923 8.863z" fill="#ffffff" opacity="1" data-original="#000000" class=""></path></g></svg>